<svg width="32" height="30" viewBox="0 0 32 30" fill="none" xmlns="http://www.w3.org/2000/svg">
<path d="M30.8085 0.549614C30.1464 -0.0107825 29.2366 -0.154989 28.4393 0.174076L1.4409 11.3005C0.253271 11.7995 -0.313181 13.1869 0.175647 14.3991C0.428476 15.0261 0.931743 15.5127 1.55862 15.7364L7.38298 17.8033L10.5394 28.4566C10.5458 28.4783 10.5653 28.4915 10.5735 28.5124C10.6061 28.5973 10.6539 28.6756 10.7141 28.743C10.7365 28.7701 10.761 28.7955 10.7871 28.819C10.8658 28.8857 10.9571 28.935 11.0553 28.9637C11.0703 28.9682 11.0803 28.9818 11.0956 28.9854L11.1044 28.985L11.1088 28.9869C11.1591 28.9983 11.2105 29.0039 11.2619 29.0034C11.3291 29.001 11.3958 28.9891 11.4598 28.9682C11.4722 28.9647 11.4847 28.9657 11.4969 28.9615C11.6062 28.9222 11.705 28.8575 11.7855 28.7724C11.7948 28.7629 11.8091 28.7612 11.8181 28.751L16.3593 23.6362L22.9842 28.8727C23.3867 29.194 23.883 29.3685 24.3939 29.3684C25.499 29.3682 26.453 28.578 26.6807 27.4742L31.5972 2.83589C31.7675 1.98361 31.4643 1.10485 30.8085 0.549614ZM12.1876 19.8237L11.1219 25.1102L8.8995 17.6071L19.922 11.7481L12.3921 19.4347C12.288 19.5411 12.2169 19.6763 12.1876 19.8237ZM25.2048 27.1648C25.1471 27.4479 24.9491 27.6801 24.6824 27.7776C24.4218 27.88 24.1275 27.8343 23.9084 27.6575L16.7302 21.9838C16.4194 21.7382 15.9759 21.7781 15.7119 22.0755L12.5541 25.6321L13.6179 20.36L24.4499 9.30116C24.7443 9.0012 24.7448 8.5145 24.4509 8.21407C24.2185 7.97626 23.8618 7.92012 23.5699 8.0754L7.95385 16.3766L2.05159 14.2823C1.72987 14.1742 1.51107 13.8694 1.50712 13.5237C1.49157 13.1756 1.69345 12.8555 2.01038 12.7261L29.0043 1.60112C29.2863 1.47898 29.6117 1.53014 29.8446 1.73331C30.0764 1.92427 30.1829 2.23231 30.1198 2.52945L25.2048 27.1648Z" fill="#524340"/>
</svg>
