<svg width="33" height="30" viewBox="0 0 33 30" fill="none" xmlns="http://www.w3.org/2000/svg">
<path fill-rule="evenodd" clip-rule="evenodd" d="M32.1127 2.78528C32.8209 2.1481 32.8209 1.11505 32.1127 0.477873C31.4045 -0.159291 30.2562 -0.159291 29.548 0.477873L18.7666 10.1774L11.0144 0.666745C10.6728 0.247625 10.1297 0 9.55196 0H1.81355C1.13015 0 0.504765 0.345634 0.195863 0.894073C-0.113056 1.44251 -0.0530463 2.10061 0.351085 2.59641L11.7071 16.5285L0.531171 26.5832C-0.177057 27.2203 -0.177057 28.2534 0.531171 28.8905C1.23942 29.5277 2.38768 29.5277 3.09593 28.8905L13.8773 19.191L21.6295 28.7018C21.9711 29.1207 22.5143 29.3684 23.0919 29.3684H30.8303C31.5137 29.3684 32.1392 29.0229 32.448 28.4743C32.7569 27.9259 32.697 27.2678 32.2928 26.7719L20.9367 12.8399L32.1127 2.78528ZM16.9935 13.5201C17.0495 13.6041 17.1146 13.6844 17.189 13.7601L27.2515 26.1053H24.011L5.39237 3.26316H8.63297L16.9935 13.5201Z" fill="#524340"/>
</svg>
