<svg width="32" height="30" viewBox="0 0 32 30" fill="none" xmlns="http://www.w3.org/2000/svg">
<path d="M31.6439 12.5903V7.46395C28.7212 7.46395 26.4908 6.82315 25.0514 5.57765C23.5741 4.15621 22.7465 2.35611 22.7111 0.487368V0.117329L16.8108 0V20.8214C16.6084 21.7299 16.0716 22.5655 15.2727 23.2153C14.4739 23.8652 13.4515 24.2981 12.3437 24.4556C11.2358 24.6131 10.0958 24.4876 9.07756 24.096C8.0593 23.7045 7.21182 23.0657 6.64952 22.266C6.08722 21.4662 5.83718 20.544 5.93316 19.6238C6.02914 18.7037 6.46651 17.8298 7.18624 17.1203C7.90596 16.4108 8.87338 15.8998 9.95789 15.6562C11.0424 15.4126 12.1918 15.4482 13.2509 15.7582V10.7943C12.6334 10.7112 12.0087 10.6689 11.383 10.6679C9.13166 10.6679 6.93088 11.2163 5.05895 12.2437C3.18702 13.2712 1.72804 14.7315 0.866484 16.44C0.00493195 18.1485 -0.220489 20.0285 0.218726 21.8423C0.657942 23.6561 1.74207 25.3221 3.33401 26.6298C4.92595 27.9374 6.95421 28.828 9.16229 29.1888C11.3704 29.5495 13.6591 29.3644 15.7391 28.6567C17.8191 27.949 19.5969 26.7505 20.8476 25.2129C22.0984 23.6753 22.766 21.8675 22.766 20.0182C22.7648 19.635 22.7354 19.2522 22.6781 18.872V10.6138C25.361 11.9901 28.4825 12.6782 31.6439 12.5903Z" fill="#524340"/>
</svg>
