<svg width="33" height="30" viewBox="0 0 33 30" fill="none" xmlns="http://www.w3.org/2000/svg">
<path d="M25.0379 5.08074C24.6505 5.08074 24.2718 5.18408 23.9497 5.37771C23.6276 5.57133 23.3766 5.84653 23.2283 6.16851C23.0801 6.4905 23.0413 6.8448 23.1169 7.18661C23.1924 7.52843 23.379 7.8424 23.6529 8.08884C23.9268 8.33527 24.2758 8.5031 24.6557 8.57109C25.0357 8.63908 25.4295 8.60418 25.7874 8.47081C26.1453 8.33745 26.4512 8.11159 26.6664 7.82182C26.8816 7.53204 26.9965 7.19135 26.9965 6.84284C26.9965 6.3755 26.7901 5.9273 26.4228 5.59685C26.0555 5.26639 25.5573 5.08074 25.0379 5.08074ZM32.5459 8.63432C32.5142 7.41596 32.2606 6.21054 31.7951 5.06605C31.3801 4.08681 30.7342 3.2001 29.9018 2.46695C29.0936 1.71427 28.1057 1.13682 27.0128 0.778263C25.744 0.346783 24.4027 0.113377 23.0466 0.0881052C21.3165 -8.20544e-08 20.7615 0 16.3219 0C11.8824 0 11.3274 -8.20544e-08 9.5973 0.0881052C8.2412 0.113377 6.89984 0.346783 5.63107 0.778263C4.54024 1.14045 3.55318 1.71741 2.74209 2.46695C1.90547 3.19408 1.26361 4.08286 0.865063 5.06605C0.38546 6.20752 0.126022 7.41428 0.0979315 8.63432C-9.12059e-08 10.1908 0 10.6901 0 14.6842C0 18.6783 -9.12059e-08 19.1776 0.0979315 20.7341C0.126022 21.9541 0.38546 23.1609 0.865063 24.3024C1.26361 25.2856 1.90547 26.1743 2.74209 26.9015C3.55318 27.651 4.54024 28.228 5.63107 28.5902C6.89984 29.0216 8.2412 29.255 9.5973 29.2803C11.3274 29.3684 11.8824 29.3684 16.3219 29.3684C20.7615 29.3684 21.3165 29.3684 23.0466 29.2803C24.4027 29.255 25.744 29.0216 27.0128 28.5902C28.1057 28.2316 29.0936 27.6541 29.9018 26.9015C30.7379 26.1711 31.3844 25.2836 31.7951 24.3024C32.2606 23.1579 32.5142 21.9525 32.5459 20.7341C32.5459 19.1776 32.6439 18.6783 32.6439 14.6842C32.6439 10.6901 32.6439 10.1908 32.5459 8.63432ZM29.608 20.5579C29.5961 21.49 29.4085 22.4135 29.0531 23.2892C28.7924 23.9282 28.3739 24.5056 27.8289 24.9778C27.2995 25.4632 26.659 25.839 25.9519 26.0792C24.9786 26.3989 23.9521 26.5677 22.916 26.5784C21.2838 26.6518 20.6799 26.6665 16.3872 26.6665C12.0946 26.6665 11.4906 26.6665 9.85845 26.5784C8.78266 26.5965 7.71145 26.4475 6.692 26.1379C6.01591 25.8854 5.40478 25.5106 4.89658 25.0366C4.35484 24.5648 3.94149 23.9869 3.68876 23.3479C3.29027 22.4597 3.06925 21.5152 3.03588 20.5579C3.03588 19.0895 2.93795 18.5462 2.93795 14.6842C2.93795 10.8223 2.93795 10.2789 3.03588 8.81053C3.0432 7.8576 3.23656 6.91325 3.60715 6.02053C3.89449 5.40072 4.33554 4.84822 4.89658 4.40526C5.39246 3.90037 6.00531 3.49939 6.692 3.23053C7.6869 2.90754 8.7355 2.73872 9.79316 2.73126C11.4254 2.73126 12.0293 2.64316 16.3219 2.64316C20.6146 2.64316 21.2185 2.64316 22.8507 2.73126C23.8868 2.74195 24.9133 2.91077 25.8866 3.23053C26.6283 3.47818 27.294 3.88081 27.8289 4.40526C28.3638 4.85633 28.7817 5.4078 29.0531 6.02053C29.4158 6.9147 29.6036 7.85867 29.608 8.81053C29.6896 10.2789 29.7059 10.8223 29.7059 14.6842C29.7059 18.5462 29.6896 19.0895 29.608 20.5579ZM16.3219 7.15121C14.6666 7.15411 13.0493 7.59838 11.6745 8.42788C10.2997 9.25738 9.22904 10.4349 8.5978 11.8116C7.96656 13.1883 7.80307 14.7025 8.12799 16.1628C8.45291 17.6231 9.25166 18.964 10.4233 20.016C11.595 21.0681 13.0869 21.784 14.7107 22.0735C16.3345 22.363 18.0172 22.213 19.5463 21.6424C21.0753 21.0718 22.3821 20.1063 23.3014 18.8678C24.2207 17.6293 24.7114 16.1735 24.7114 14.6842C24.7136 13.6932 24.4979 12.7115 24.0769 11.7958C23.6558 10.88 23.0377 10.0481 22.258 9.34804C21.4783 8.64796 20.5525 8.09346 19.5338 7.71645C18.515 7.33943 17.4235 7.14734 16.3219 7.15121ZM16.3219 19.5741C15.247 19.5741 14.1961 19.2873 13.3023 18.75C12.4085 18.2127 11.7118 17.449 11.3005 16.5555C10.8891 15.662 10.7815 14.6788 10.9912 13.7302C11.2009 12.7817 11.7185 11.9104 12.4787 11.2266C13.2388 10.5427 14.2073 10.077 15.2616 9.88832C16.3159 9.69965 17.4087 9.79648 18.4019 10.1666C19.3951 10.5367 20.2439 11.1634 20.8411 11.9676C21.4384 12.7717 21.7571 13.7171 21.7571 14.6842C21.7571 15.3264 21.6166 15.9622 21.3434 16.5555C21.0703 17.1487 20.6699 17.6878 20.1652 18.1418C19.6605 18.5959 19.0613 18.9561 18.4019 19.2018C17.7425 19.4476 17.0357 19.5741 16.3219 19.5741Z" fill="#524340"/>
</svg>
