<svg width="25" height="25" viewBox="0 0 25 25" fill="none" xmlns="http://www.w3.org/2000/svg">
<path d="M6.25 23.4375V20.3125C6.25 16.8607 9.04822 14.0625 12.5 14.0625C15.9518 14.0625 18.75 16.8607 18.75 20.3125V23.4375" stroke="#928D86" stroke-linecap="round" stroke-linejoin="round"/>
<path d="M12.5 10.9375C14.6574 10.9375 16.4062 9.18861 16.4062 7.03125C16.4062 4.87389 14.6574 3.125 12.5 3.125C10.3426 3.125 8.59375 4.87389 8.59375 7.03125C8.59375 9.18861 10.3426 10.9375 12.5 10.9375Z" stroke="#928D86" stroke-linecap="round" stroke-linejoin="round"/>
<path d="M23.4375 21.875V20.3125C23.4375 19.0156 22.9141 17.8437 22.0625 17C21.2187 16.1484 20.0469 15.625 18.75 15.625C18.125 15.625 17.5312 15.7422 16.9922 15.9687M16.3906 7.32813C16.9609 6.66406 17.8047 6.25 18.75 6.25C20.4766 6.25 21.875 7.64844 21.875 9.375C21.875 11.1016 20.4766 12.5 18.75 12.5C17.0234 12.5 15.625 11.1016 15.625 9.375M8.00781 15.9687C7.46875 15.7422 6.875 15.625 6.25 15.625C3.66406 15.625 1.5625 17.7266 1.5625 20.3125V21.875M8.60938 7.32813C8.04688 6.67188 7.22656 6.26562 6.29688 6.25H6.25C4.52344 6.25 3.125 7.64844 3.125 9.375C3.125 11.1016 4.52344 12.5 6.25 12.5C7.05469 12.5 7.78906 12.1953 8.34375 11.6875C8.97656 11.125 9.375 10.2969 9.375 9.375" stroke="#928D86" stroke-linecap="round" stroke-linejoin="round"/>
</svg>
