<svg width="30" height="30" viewBox="0 0 30 30" fill="none" xmlns="http://www.w3.org/2000/svg">
<g clip-path="url(#clip0_103_1148)">
<path d="M30 26.25L24.375 30V28.125H15.4688L19.2188 24.375H24.375V22.5L30 26.25ZM0 3.75L5.625 0V1.875H14.5312L10.7812 5.625H5.625V7.5L0 3.75ZM18.2625 0L0 18.2625L11.7375 30L30 11.7375L18.2625 0ZM2.60625 18.2625L18.2625 2.60625L27.3937 11.7375L11.7375 27.3937L2.60625 18.2625Z" fill="#928D86"/>
<path d="M7.81873 18.2623L6.50623 19.5748L10.425 23.4936L11.7375 22.1811L13.125 23.4748L18.2625 18.2623C17.3929 19.1066 16.2261 19.5748 15.0141 19.5659C13.8021 19.5569 12.6423 19.0715 11.7853 18.2145C10.9283 17.3575 10.4429 16.1977 10.4339 14.9857C10.425 13.7737 10.8932 12.6069 11.7375 11.7373L6.52498 16.8748L7.81873 18.2623Z" fill="#928D86"/>
<path d="M23.475 10.4437L19.5563 6.5249L18.2438 7.8374L16.875 6.5249L11.7375 11.7374C12.6071 10.8931 13.774 10.4249 14.9859 10.4338C16.1979 10.4428 17.3577 10.9282 18.2147 11.7852C19.0717 12.6423 19.5572 13.802 19.5661 15.014C19.5751 16.226 19.1068 17.3928 18.2625 18.2624L23.475 13.1249L22.1625 11.8124L23.475 10.4437Z" fill="#928D86"/>
</g>
<defs>
<clipPath id="clip0_103_1148">
<rect width="30" height="30" fill="white"/>
</clipPath>
</defs>
</svg>
