<svg width="30" height="30" viewBox="0 0 30 30" fill="none" xmlns="http://www.w3.org/2000/svg">
<g clip-path="url(#clip0_103_1142)">
<path d="M29.8334 1.40218C29.6487 0.882557 29.2747 0.715543 28.7931 0.582169C27.7052 0.2787 26.5909 0.0918535 25.4672 0.0244779C23.1892 -0.107126 20.9005 0.319554 18.7712 1.16465C16.3013 2.14518 14.0459 3.6241 11.9727 5.3317C10.1357 6.84485 8.4936 8.62503 7.1841 10.6616C6.72796 11.374 6.31717 12.1175 5.95444 12.8871C5.56221 12.5383 5.16409 12.1969 4.75673 11.8673C4.27297 11.4755 3.77801 11.0995 3.27184 10.7395C3.02586 10.5654 2.77716 10.3958 2.52576 10.2305C2.26997 10.0626 1.9234 9.91392 1.79733 9.60114C1.6225 9.1665 1.9898 8.89532 2.2893 8.66988L7.49788 4.74539C7.55392 4.70319 7.61275 4.65981 7.68055 4.64919C7.73642 4.64434 7.79265 4.65095 7.84613 4.66867L10.4161 5.32698C10.5562 5.36298 10.7044 5.39898 10.8439 5.35914C10.9834 5.31931 11.1056 5.17501 11.0776 5.02748C11.0496 4.87994 10.9022 4.8106 10.7613 4.7684C10.7419 4.7625 10.7226 4.75719 10.7036 4.75247L8.34511 4.1455C8.14283 4.09356 7.93298 4.04104 7.72874 4.08206C7.51665 4.12455 7.33426 4.26264 7.16 4.3969C5.41204 5.74363 3.65791 7.07353 1.85448 8.33911C1.63427 8.49402 1.41041 8.65071 1.23587 8.86051C0.887342 9.2801 0.845318 9.92012 1.1577 10.3748C1.3555 10.6628 1.662 10.8151 1.94217 10.9971C2.27221 11.2114 2.59748 11.4333 2.91799 11.6628C3.83307 12.3209 4.71179 13.0334 5.54988 13.7968C5.11723 14.8314 4.75016 15.895 4.45107 16.9807C4.32751 17.4248 4.18015 17.9707 4.28941 18.4342C4.36338 18.747 4.58191 18.9875 4.77242 19.2277C4.99655 19.5117 5.22433 19.7936 5.45575 20.0734C6.38898 21.2073 7.35808 22.3074 8.30252 23.4307C8.76648 23.9829 9.22231 24.5423 9.67002 25.1088C9.77536 25.2428 9.97036 25.2717 10.1208 25.2342C11.5113 24.8878 12.8479 24.3393 14.2393 23.9928C14.513 23.9247 14.6858 23.5305 14.5161 23.2758C12.3784 20.0719 10.1202 16.958 7.41271 14.2577C7.095 13.9408 6.77001 13.6325 6.44109 13.3282C6.59294 13.0096 6.74928 12.6935 6.91934 12.384C9.19373 8.21606 12.9903 4.93246 17.0614 2.84481C18.8545 1.92506 20.7915 1.31691 22.7768 1.09413C24.4449 0.907048 27.0675 0.687511 28.5734 1.64296C29.4585 2.20361 29.0217 3.81442 28.9026 4.65804C28.7243 5.91126 28.457 7.14863 28.103 8.35976C26.2632 14.6596 22.0234 20.2495 15.9654 22.4083C15.405 22.6086 15.6446 23.5517 16.2119 23.3496C18.4336 22.5576 20.4584 21.3136 22.2299 19.7405C22.342 20.7612 22.4154 21.9577 22.4966 22.9326C21.4025 24.363 20.3005 25.7866 19.1906 27.2036C18.8836 27.5946 18.5747 27.9842 18.2639 28.3724C17.8949 28.8341 17.3539 29.6432 16.823 28.8949C16.7022 28.7247 16.6294 28.4818 16.5406 28.2915C16.3291 27.8391 16.1177 27.3866 15.9063 26.9342L14.8416 24.6579C14.578 24.0944 14.1132 24.5883 14.3777 25.1504L15.7505 28.0829C15.9483 28.5054 16.1304 28.9424 16.3458 29.3552C16.7498 30.1292 17.6649 30.211 18.2213 29.5698C19.2649 28.3635 20.2225 27.0643 21.202 25.8008C21.8979 24.9034 22.6389 24.0247 23.2898 23.0902C23.5814 22.6712 23.3679 21.9394 23.3237 21.4605C23.2466 20.6284 23.1766 19.7927 23.0623 18.9648C24.2364 17.7974 25.2798 16.4923 26.1721 15.0751C27.4609 13.0332 28.4227 10.7699 29.0539 8.4114C29.3692 7.23051 29.6043 6.0275 29.7574 4.81148C29.8832 3.78816 30.1894 2.40308 29.8334 1.40218ZM9.93169 24.3496C9.91852 24.3331 9.90508 24.3168 9.89219 24.3003C9.93645 24.3168 9.93786 24.3334 9.93169 24.3496ZM9.34783 17.7918C10.7884 19.5174 12.089 21.3543 13.3489 23.2262C12.189 23.5626 11.0552 23.9973 9.88379 24.2885C9.06458 23.2557 8.21007 22.2525 7.3536 21.2537C6.9297 20.7588 6.50609 20.2634 6.08836 19.7626C5.87637 19.5085 5.66587 19.2528 5.45687 18.9955C5.27112 18.7662 4.89457 18.4366 4.84638 18.1362C4.78839 17.775 4.99011 17.2778 5.09293 16.9438C5.23469 16.4835 5.39355 16.0291 5.5412 15.5705C5.68632 15.1217 5.85302 14.682 6.03149 14.2477C7.20259 15.3589 8.30999 16.5423 9.34783 17.7918Z" fill="#928D86"/>
<path d="M17.1122 15.7911C17.2038 15.7982 17.2946 15.802 17.3848 15.802C19.23 15.802 20.7972 14.2971 20.9393 12.3293C20.9926 11.5884 20.8362 10.8474 20.4898 10.2002C20.1434 9.55288 19.6225 9.02833 18.993 8.69284C18.3635 8.35735 17.6537 8.22599 16.9533 8.31537C16.253 8.40474 15.5935 8.71084 15.0583 9.19495C14.5231 9.67907 14.1362 10.3195 13.9466 11.0351C13.757 11.7508 13.7731 12.5097 13.9929 13.2157C14.2128 13.9217 14.6265 14.5433 15.1817 15.0017C15.7369 15.4601 16.4087 15.7348 17.1122 15.7911ZM14.7308 10.2935C14.9816 9.88682 15.3232 9.55105 15.7257 9.3156C16.1283 9.08016 16.5795 8.95222 17.0399 8.94298C17.3121 8.93911 17.5832 8.98054 17.8431 9.06573C19.7894 9.70546 20.7148 12.5659 19.1476 14.1171C17.937 15.3151 15.7511 15.0971 14.7812 13.6807C14.1172 12.7093 14.1217 11.2915 14.7322 10.2935H14.7308ZM1.24408 23.0417L3.13605 21.5235C3.34113 21.3589 3.61513 21.2308 3.74765 20.9868C3.77479 20.941 3.78997 20.8885 3.79164 20.8345C3.7886 20.7754 3.7678 20.7189 3.73224 20.6731C3.68856 20.614 3.63104 20.5678 3.56533 20.5392C3.49961 20.5105 3.42795 20.5003 3.35738 20.5096C3.2449 20.5268 3.13541 20.5612 3.03238 20.6117C2.60261 20.8183 2.23559 21.2636 1.93049 21.5914C1.52256 22.0299 0.984643 22.4503 0.715122 23.0013C0.687106 23.0603 0.659088 23.1258 0.667213 23.1922C0.705876 23.5144 1.15246 23.1146 1.24408 23.0417ZM4.84142 23.026C3.27249 24.5032 2.30507 25.6342 0.470818 27.4569C-0.299361 28.222 0.00994302 28.5646 0.453447 28.1471C2.02238 26.6717 3.92752 25.1934 5.49645 23.7162C5.94248 23.2975 5.28521 22.6091 4.84142 23.026ZM6.91494 25.5616C6.82893 25.5525 6.75748 25.5911 6.69473 25.6463C6.62636 25.7071 6.56809 25.7885 6.51206 25.8529C6.36899 26.013 6.22694 26.1744 6.08592 26.3371C5.87486 26.5808 5.66614 26.8267 5.45975 27.0748C5.2726 27.3005 5.0084 27.5248 4.86019 27.7782C4.48421 28.2173 4.78735 28.4489 5.09077 28.1618L7.02644 26.34C7.16317 26.2114 7.17857 25.9623 7.12702 25.7879C7.09536 25.6817 7.0214 25.5725 6.91494 25.5616Z" fill="#928D86"/>
</g>
<defs>
<clipPath id="clip0_103_1142">
<rect width="30" height="30" fill="white"/>
</clipPath>
</defs>
</svg>
