<svg width="30" height="30" viewBox="0 0 30 30" fill="none" xmlns="http://www.w3.org/2000/svg">
<path d="M24.2447 5.52471C18.104 5.52471 15.4228 2.23408 15.3947 2.20596L15 1.69971L14.5969 2.20596C14.5781 2.23408 11.925 5.52471 5.74685 5.52471H5.2406V11.9278C5.2406 12.031 5.3531 22.9622 14.7656 27.931L15 28.0528L15.2344 27.931C24.6469 22.9622 24.75 12.031 24.75 11.9278V5.52471H24.2447ZM23.7478 11.9278C23.7384 12.031 23.6259 22.1747 15.0009 26.9091C6.37591 22.1747 6.25404 12.031 6.25404 11.9278V6.52783C11.2884 6.39658 14.0353 4.21221 15.0009 3.26533C15.9665 4.21221 18.7134 6.39658 23.7478 6.52783V11.9278Z" fill="#928D86"/>
<path d="M12.3197 10.1839V12.1995C11.9217 12.2949 11.5674 12.5217 11.3139 12.8431C11.0605 13.1646 10.9227 13.562 10.9229 13.9714V18.3495C10.9251 18.8337 11.1184 19.2974 11.4607 19.6397C11.8031 19.9821 12.2668 20.1754 12.751 20.1776H17.251C17.7351 20.1754 18.1988 19.9821 18.5412 19.6397C18.8836 19.2974 19.0769 18.8337 19.0791 18.3495V13.9686C19.0791 13.5579 18.9401 13.1593 18.6848 12.8376C18.4294 12.5159 18.0728 12.29 17.6729 12.1967V10.1811C17.6719 9.54981 17.4207 8.94471 16.9743 8.49835C16.5279 8.052 15.9228 7.8008 15.2916 7.7998H14.701C14.0692 7.8008 13.4637 8.05238 13.0173 8.49935C12.5708 8.94631 12.32 9.55214 12.3197 10.1839ZM16.1541 16.1557C16.1545 16.385 16.0868 16.6092 15.9596 16.7999C15.8325 16.9906 15.6515 17.1393 15.4398 17.2271C15.228 17.3149 14.995 17.3379 14.7702 17.2931C14.5454 17.2484 14.3389 17.1379 14.1769 16.9756C14.015 16.8134 13.9048 16.6068 13.8604 16.3819C13.816 16.157 13.8394 15.924 13.9275 15.7124C14.0157 15.5008 14.1646 15.3201 14.3556 15.1932C14.5465 15.0664 14.7708 14.9991 15 14.9998C15.3059 15.0015 15.5987 15.1239 15.8148 15.3404C16.0309 15.5569 16.1529 15.8499 16.1541 16.1557ZM16.4635 10.1839V12.1432H13.5385V10.1839C13.538 9.87453 13.66 9.57759 13.8778 9.35798C14.0957 9.13837 14.3916 9.01397 14.701 9.01199H15.2916C15.6024 9.01199 15.9005 9.13546 16.1202 9.35523C16.34 9.575 16.4635 9.87307 16.4635 10.1839Z" fill="#928D86"/>
</svg>
