<svg width="35" height="35" viewBox="0 0 35 35" fill="none" xmlns="http://www.w3.org/2000/svg">
<g clip-path="url(#clip0_95_549)">
<path d="M17.5 35C14.0388 35 10.6554 33.9737 7.77753 32.0507C4.89967 30.1278 2.65665 27.3947 1.33212 24.197C0.00758242 20.9993 -0.338976 17.4806 0.336265 14.0859C1.01151 10.6913 2.67822 7.57306 5.12564 5.12564C7.57306 2.67822 10.6913 1.01151 14.0859 0.336265C17.4806 -0.338976 20.9993 0.00758242 24.197 1.33212C27.3947 2.65665 30.1278 4.89967 32.0507 7.77753C33.9737 10.6554 35 14.0388 35 17.5C34.9949 22.1397 33.1496 26.588 29.8688 29.8688C26.588 33.1496 22.1397 34.9949 17.5 35ZM17.5 1.09376C14.2552 1.09376 11.0832 2.05597 8.38519 3.85871C5.68719 5.66145 3.58436 8.22376 2.34261 11.2216C1.10086 14.2195 0.775961 17.5182 1.409 20.7007C2.04204 23.8832 3.60458 26.8065 5.89904 29.101C8.19349 31.3954 11.1168 32.958 14.2993 33.591C17.4818 34.2241 20.7806 33.8992 23.7784 32.6574C26.7763 31.4157 29.3386 29.3128 31.1413 26.6148C32.9441 23.9168 33.9063 20.7449 33.9063 17.5C33.9012 13.1504 32.1711 8.9803 29.0954 5.90463C26.0197 2.82896 21.8497 1.09882 17.5 1.09376Z" fill="#928D86"/>
<path d="M25.9766 12.0312H9.02344C8.8784 12.0312 8.7393 11.9736 8.63674 11.8711C8.53418 11.7685 8.47656 11.6294 8.47656 11.4844C8.47656 11.3393 8.53418 11.2002 8.63674 11.0977C8.7393 10.9951 8.8784 10.9375 9.02344 10.9375H25.9766C26.1216 10.9375 26.2607 10.9951 26.3633 11.0977C26.4658 11.2002 26.5234 11.3393 26.5234 11.4844C26.5234 11.6294 26.4658 11.7685 26.3633 11.8711C26.2607 11.9736 26.1216 12.0312 25.9766 12.0312ZM25.9766 18.0469H9.02344C8.8784 18.0469 8.7393 17.9893 8.63674 17.8867C8.53418 17.7841 8.47656 17.645 8.47656 17.5C8.47656 17.355 8.53418 17.2159 8.63674 17.1133C8.7393 17.0107 8.8784 16.9531 9.02344 16.9531H25.9766C26.1216 16.9531 26.2607 17.0107 26.3633 17.1133C26.4658 17.2159 26.5234 17.355 26.5234 17.5C26.5234 17.645 26.4658 17.7841 26.3633 17.8867C26.2607 17.9893 26.1216 18.0469 25.9766 18.0469ZM25.9766 24.0625H9.02344C8.8784 24.0625 8.7393 24.0049 8.63674 23.9023C8.53418 23.7998 8.47656 23.6607 8.47656 23.5156C8.47656 23.3706 8.53418 23.2315 8.63674 23.1289C8.7393 23.0264 8.8784 22.9688 9.02344 22.9688H25.9766C26.1216 22.9688 26.2607 23.0264 26.3633 23.1289C26.4658 23.2315 26.5234 23.3706 26.5234 23.5156C26.5234 23.6607 26.4658 23.7998 26.3633 23.9023C26.2607 24.0049 26.1216 24.0625 25.9766 24.0625Z" fill="#928D86"/>
</g>
<defs>
<clipPath id="clip0_95_549">
<rect width="35" height="35" fill="white"/>
</clipPath>
</defs>
</svg>
