<svg width="27" height="20" viewBox="0 0 27 20" fill="none" xmlns="http://www.w3.org/2000/svg">
<g clip-path="url(#clip0_803_2833)">
<mask id="mask0_803_2833" style="mask-type:luminance" maskUnits="userSpaceOnUse" x="0" y="0" width="27" height="20">
<path d="M0.0012207 0H26.9986V20H0.0012207V0Z" fill="white"/>
</mask>
<g mask="url(#mask0_803_2833)">
<path fill-rule="evenodd" clip-rule="evenodd" d="M-1.6875 0H28.6875V20H-1.6875V0Z" fill="#165D31"/>
<path fill-rule="evenodd" clip-rule="evenodd" d="M5.96561 5.66776C5.93397 6.13651 5.8865 6.95682 6.29388 7.04276C6.78035 7.08963 6.51141 6.23026 6.68939 6.07401C6.72103 5.99588 6.78035 5.99588 6.78431 6.09354V6.82401C6.78431 7.05838 6.94251 7.1287 7.06116 7.17557C7.18773 7.16776 7.27474 7.17557 7.3222 7.29276L7.38548 8.55448C7.38548 8.55448 7.67815 8.64041 7.69398 7.84745C7.70584 7.3787 7.59905 6.99198 7.66233 6.90213C7.66233 6.81229 7.78099 6.80838 7.86009 6.85135C7.98665 6.93729 8.04202 7.04666 8.23978 7.0076C8.54036 6.92166 8.7223 6.77713 8.72625 6.55057C8.72031 6.32792 8.67341 6.1082 8.58782 5.90213C8.60364 5.86307 8.53245 5.7576 8.54827 5.71854C8.59969 5.80448 8.68275 5.79666 8.69857 5.71854C8.64715 5.55448 8.56805 5.39432 8.44149 5.32791C8.3347 5.23416 8.17649 5.24979 8.12508 5.4451C8.09344 5.66776 8.20418 5.92948 8.36634 6.14823C8.40193 6.23026 8.4494 6.37088 8.42962 6.49588C8.33997 6.54276 8.25691 6.52713 8.18045 6.44901C8.18045 6.44901 7.94315 6.27323 7.94315 6.23026C8.00643 5.83182 7.95501 5.78495 7.91941 5.67166C7.89568 5.51932 7.82054 5.46854 7.76121 5.36698C7.70189 5.30448 7.62278 5.30448 7.58323 5.36698C7.47645 5.54666 7.52786 5.93338 7.60301 6.10916C7.65838 6.26932 7.74144 6.37088 7.70189 6.37088C7.67024 6.46073 7.60301 6.43729 7.55159 6.33182C7.49389 6.10983 7.46597 5.88131 7.46854 5.65213C7.44876 5.47245 7.42503 5.08963 7.30242 4.98807C7.23123 4.89432 7.12444 4.9412 7.08489 5.02713C7.07438 5.20164 7.07835 5.3767 7.09676 5.55057C7.17586 5.83963 7.20355 6.09745 7.2431 6.39041C7.25496 6.78495 7.0137 6.56229 7.02557 6.36307C7.07745 6.11262 7.0734 5.854 7.0137 5.60526C6.97415 5.5037 6.93065 5.48026 6.83177 5.49588C6.75662 5.49588 6.56282 5.70291 6.50745 6.05448C6.50745 6.05448 6.45999 6.23416 6.44022 6.39432C6.41253 6.57401 6.29388 6.70682 6.20687 6.37088C6.13567 6.12479 6.08821 5.52713 5.96956 5.66776H5.96561Z" fill="white"/>
<path fill-rule="evenodd" clip-rule="evenodd" d="M7.29053 7.58594L6.0249 8.1875C6.03677 7.90234 6.62212 7.39062 7.02554 7.38672C7.28262 7.39062 7.21934 7.48437 7.28657 7.58594H7.29053Z" fill="white"/>
<path fill-rule="evenodd" clip-rule="evenodd" d="M7.06516 7.97677C6.4007 9.67599 8.62741 9.91427 8.87658 8.04708C8.90031 7.96895 8.99524 7.89474 9.01106 8.01974C8.95964 9.71114 7.28664 9.82442 7.00188 9.29317C6.93497 9.11036 6.90149 8.91725 6.903 8.72286C6.86345 8.39083 6.68547 8.51974 6.65778 8.84786C6.6301 9.03146 6.63801 9.08224 6.63801 9.25802C6.72502 10.594 8.88054 10.0197 9.23254 8.91817C9.41843 8.3088 9.2009 7.85958 9.29978 7.85958C9.51335 8.08614 9.81394 7.89083 9.88117 7.8127C9.90886 7.77364 9.98005 7.7463 10.0275 7.79708C10.1936 7.91427 10.4863 7.85958 10.5496 7.65255C10.5865 7.44422 10.6102 7.23328 10.6208 7.01974C10.4823 7.0588 10.3835 7.08614 10.3716 7.14474L10.3439 7.32442C10.3321 7.38302 10.2174 7.38302 10.2094 7.3088C10.158 7.07442 9.94445 7.04708 9.81394 7.40646C9.73088 7.47677 9.57268 7.49239 9.55686 7.38692C9.57663 7.14474 9.47776 7.11349 9.28 7.22677L9.09016 5.8127C9.16926 5.8127 9.24836 5.8713 9.32351 5.77755C9.24441 5.52364 9.06643 5.00802 8.96755 4.96895C8.92404 4.91427 8.88449 4.94942 8.82121 4.96505C8.71838 4.9963 8.62346 5.08224 8.6551 5.25411C8.77375 5.98849 8.85285 6.54708 8.97546 7.28536C8.99524 7.36739 8.92404 7.48067 8.82912 7.46895C8.67092 7.36349 8.63137 7.14864 8.35451 7.15645C8.15676 7.15645 7.93527 7.3713 7.90759 7.57442C7.87199 7.73849 7.86013 7.91427 7.90759 8.05489C8.04602 8.21895 8.21213 8.20333 8.35847 8.16817C8.47712 8.11739 8.576 8.0002 8.6195 8.02755C8.64719 8.0627 8.62346 8.45333 8.05393 8.7502C7.70984 8.90645 7.43298 8.9377 7.28664 8.66036C7.19567 8.48458 7.29455 7.82442 7.06516 7.97677Z" fill="white"/>
<path fill-rule="evenodd" clip-rule="evenodd" d="M9.90083 6.25003C10.0314 6.20316 10.6642 5.48441 10.6642 5.48441L10.5692 5.40628C10.535 5.37764 10.535 5.34899 10.5692 5.32034C10.7274 5.22659 10.676 5.03128 10.5969 4.93753C10.543 4.91254 10.484 4.89991 10.4244 4.90059C10.3648 4.90126 10.3062 4.91523 10.2528 4.94144C10.1421 5.04691 10.1184 5.21488 10.2054 5.31644C10.2884 5.3555 10.3715 5.44144 10.3161 5.48831C10.0551 5.76175 9.34712 6.23441 9.43018 6.25003C9.446 6.27347 9.88501 6.27347 9.89688 6.25003H9.90083ZM6.06441 8.78909C5.8271 9.16409 5.80733 9.72269 5.93784 9.89066C6.00904 9.96878 6.12373 10.0039 6.20679 9.97659C6.35708 9.91409 6.42432 9.61331 6.38872 9.50784C6.34126 9.42972 6.2938 9.42061 6.24634 9.4805C6.14351 9.69144 6.1 9.54691 6.08814 9.42972C6.0768 9.23126 6.08741 9.03216 6.11978 8.83597C6.14746 8.67191 6.11978 8.71878 6.06441 8.78909ZM16.2329 8.19144C16.0035 7.69925 15.6832 7.21488 15.5843 7.03128C15.2761 6.55006 14.9488 6.08095 14.6034 5.62503C14.3582 5.33597 15.0068 5.74613 14.5243 5.168L14.1723 4.87503C14.0932 4.82035 13.9034 4.71878 13.8717 4.88285C13.8559 5.03128 13.8638 5.10941 13.8876 5.2305C13.9073 5.30863 14.026 5.44534 14.0853 5.52347C14.8961 6.5842 15.6083 7.71509 16.2131 8.90238C16.316 8.85159 16.2922 8.27347 16.2329 8.19144Z" fill="white"/>
<path fill-rule="evenodd" clip-rule="evenodd" d="M15.2243 9.8241C15.1768 9.87488 15.335 10.0897 15.5407 10.0897C15.8808 10.0507 16.1814 9.86316 16.4583 9.36316C16.5708 9.19683 16.6425 9.00693 16.6679 8.80848C16.7014 7.8602 16.6244 6.91127 16.4385 5.98035C16.4266 5.90223 16.4385 5.80848 16.4464 5.78504C16.4701 5.75769 16.5453 5.78504 16.5848 5.71863C16.6442 5.66004 16.4266 5.17176 16.308 4.98816C16.2684 4.90223 16.2487 4.84754 16.1775 4.99598C16.0916 5.15976 16.0507 5.34294 16.0588 5.52723C16.221 6.64051 16.2724 7.61316 16.3752 8.72644C16.3871 8.83582 16.3713 8.99207 16.2961 9.05457C15.9978 9.38292 15.6326 9.64518 15.2243 9.8241ZM19.832 9.82019C19.5867 9.96082 19.5867 10.121 19.7845 10.1249C20.1246 10.0858 20.5281 10.0585 20.8049 9.64441C20.9027 9.44939 20.9592 9.23673 20.971 9.01941C21.0208 8.08574 20.9584 7.14952 20.7851 6.23035C20.7772 6.15223 20.7416 5.96863 20.7535 5.94519C20.7772 5.89051 20.888 5.9491 20.9275 5.8866C20.9829 5.82801 20.6388 5.39051 20.5162 5.20301C20.4766 5.11707 20.4608 5.06238 20.3857 5.21082C20.3052 5.37588 20.2803 5.56202 20.3145 5.74207C20.4964 6.95301 20.6309 7.85926 20.6586 8.92957C20.6428 9.03113 20.6388 9.08582 20.5913 9.21473C20.4845 9.34754 20.3659 9.51941 20.2552 9.60144C20.1444 9.67957 19.9071 9.75769 19.832 9.82019Z" fill="white"/>
<path fill-rule="evenodd" clip-rule="evenodd" d="M20.0139 8.73829C20.0166 8.45443 20.0153 8.20704 20.01 7.9961C20.0074 7.81415 19.967 7.63465 19.8913 7.46876C19.8201 7.3086 19.8637 7.17969 19.8281 7.00782C19.7964 6.83594 19.8043 6.57813 19.7569 6.37891C19.741 6.30079 19.7015 6.04688 19.7134 6.01954C19.7331 5.96485 19.8083 6.01954 19.8478 5.95704C19.9032 5.89844 19.6501 5.25391 19.5235 5.07032C19.48 4.98829 19.393 5.01563 19.2941 5.14844C19.1952 5.23829 19.2308 5.43751 19.2704 5.62891C19.5116 6.89063 19.6975 8.03516 19.658 9.23438C19.6422 9.33594 20.0139 8.92969 20.0139 8.73829ZM18.2065 7.17579C18.0522 7.16797 17.7319 6.87501 17.6369 6.70704C17.6214 6.66599 17.6148 6.62217 17.6175 6.57842C17.6202 6.53468 17.6322 6.49199 17.6528 6.45313C17.7121 6.41407 17.7991 6.37501 17.8663 6.41407C17.8663 6.41407 17.9336 6.50782 17.9217 6.51954C18.0008 6.5586 18.0404 6.53907 18.0483 6.50391C18.0522 6.44532 18.0245 6.41016 18.0245 6.34766C18.0601 6.16797 18.2618 6.14063 18.3409 6.25391C18.3963 6.32422 18.42 6.46876 18.424 6.56641C18.424 6.61719 18.3449 6.5586 18.2935 6.56641C18.25 6.58204 18.2381 6.63672 18.2342 6.6836C18.2262 6.81251 18.2104 7.01954 18.2065 7.17188V7.17579ZM15.3667 9.05079C15.4063 8.66797 15.3509 7.98438 15.347 7.75782C15.3258 7.17515 15.277 6.59378 15.2006 6.01563C15.1532 5.68751 15.3351 6.05079 15.3114 5.85938C15.252 5.53516 15.0701 5.31251 14.8526 5.01954C14.7853 4.92188 14.7853 4.90235 14.6785 5.04297C14.5599 5.30469 14.6627 5.48829 14.6944 5.69532C14.8486 6.36719 14.9396 6.98438 14.9831 7.59766C15.0287 8.23474 15.0339 8.874 14.9989 9.51172C15.1176 9.51563 15.2995 9.32813 15.3667 9.05079Z" fill="white"/>
<path fill-rule="evenodd" clip-rule="evenodd" d="M20.54 8.43749C20.2671 7.98436 19.8597 7.49999 19.749 7.31639C19.3822 6.81056 18.997 6.31805 18.5941 5.83983C18.2579 5.48827 18.7523 5.78124 18.5308 5.5078C18.3449 5.30858 18.2935 5.24217 18.1313 5.12108C18.0522 5.0703 18.0048 4.97264 17.9731 5.14061C17.9605 5.2861 17.9579 5.43227 17.9652 5.57811C17.9652 5.64452 18.0364 5.77342 18.0997 5.85155C18.9184 6.84764 19.8162 7.86327 20.536 9.14061C20.6389 9.08983 20.6033 8.51561 20.536 8.43749H20.54Z" fill="white"/>
<path fill-rule="evenodd" clip-rule="evenodd" d="M8.22395 7.60561C8.20418 7.64077 8.16067 7.68374 8.17649 7.72671C8.20286 7.76316 8.23714 7.78009 8.27932 7.77749C8.32283 7.77749 8.38611 7.78921 8.39798 7.76577C8.42434 7.73452 8.43225 7.69155 8.42171 7.63686C8.37424 7.51968 8.24768 7.56655 8.22395 7.60561Z" fill="#165D31"/>
<path fill-rule="evenodd" clip-rule="evenodd" d="M17.3839 14.1601C17.7478 14.1757 17.9851 14.1796 18.3055 14.2147L18.6852 14.1757C19.1044 14.1366 19.1202 14.7655 19.1202 14.7655C19.1202 15.1366 18.9739 15.1561 18.788 15.1952C18.6812 15.2108 18.6298 15.1327 18.5705 15.0546C18.481 15.0829 18.3857 15.0883 18.2936 15.0702C18.1407 15.065 17.9891 15.0585 17.8388 15.0507C17.6806 15.039 17.5936 15.0702 17.4314 15.0546C17.3998 15.1054 17.3523 15.1757 17.2574 15.1561C17.1783 15.1444 17.0794 14.9218 17.1071 14.746C17.1664 14.621 17.1466 14.664 17.1466 14.6093C15.6595 14.5702 14.1605 14.5038 12.7051 14.5233C11.566 14.5272 10.4428 14.5741 9.31558 14.621C8.7144 14.6132 8.25562 14.5194 7.93921 14.0624C7.97085 14.0624 9.47378 14.1444 9.91279 14.1171C10.7236 14.1093 11.4671 14.0429 12.2937 14.0194C13.9232 14.0468 15.5409 14.0468 17.1704 14.1601C17.0122 14.0546 17.0122 13.8085 17.2495 13.746C17.2692 13.7304 17.2811 13.8671 17.3167 13.8632C17.5105 13.8515 17.4235 14.1093 17.3839 14.1601ZM10.8343 5.28505C10.5891 5.98036 10.9767 6.74599 11.2457 6.67177C11.4434 6.74989 11.5621 6.38271 11.6412 5.98427C11.7005 5.87099 11.74 5.85927 11.7677 5.91786C11.7598 6.44911 11.8073 6.57021 11.9457 6.73036C12.2542 6.96474 12.5113 6.76161 12.5311 6.74208L12.7684 6.5038C12.8264 6.44651 12.8936 6.4426 12.9701 6.49208C13.0452 6.55849 13.0333 6.67177 13.1916 6.74989C13.326 6.80458 13.6068 6.76552 13.6741 6.65224C13.7611 6.49989 13.7848 6.44911 13.8244 6.39443C13.8876 6.31239 13.9944 6.34755 13.9944 6.37489C13.9826 6.42177 13.9193 6.46474 13.9628 6.55068C14.0419 6.60536 14.0577 6.57021 14.1012 6.55849C14.2594 6.48036 14.3781 6.14443 14.3781 6.14443C14.382 6.01943 14.3108 6.02724 14.2634 6.05849L14.1408 6.14052C14.0617 6.15224 13.9153 6.20302 13.8402 6.08974C13.765 5.95693 13.765 5.76552 13.7097 5.6288C13.7097 5.62099 13.6068 5.41396 13.7018 5.40224C13.7492 5.41005 13.8481 5.43739 13.8639 5.35536C13.9114 5.27333 13.7611 5.04286 13.6543 4.92568C13.5633 4.82802 13.4368 4.8163 13.3142 4.91786C13.2271 4.99599 13.239 5.08193 13.2232 5.16396C13.2088 5.22278 13.2085 5.2841 13.2222 5.34308C13.2359 5.40206 13.2634 5.45708 13.3023 5.5038C13.3893 5.66786 13.5436 5.88271 13.4921 6.18739C13.4921 6.18739 13.4012 6.32802 13.243 6.30849C13.1757 6.29677 13.0689 6.26943 13.0136 5.84755C12.9701 5.53505 13.0215 5.08974 12.887 4.88271C12.8356 4.7538 12.8 4.63271 12.6813 4.84755C12.6497 4.93349 12.5113 5.06239 12.6102 5.32411C12.7037 5.55996 12.7311 5.81638 12.6893 6.0663C12.6299 6.15224 12.6181 6.17958 12.5429 6.26161C12.4401 6.3788 12.3254 6.34755 12.2384 6.30458C12.1593 6.2538 12.096 6.22646 12.0564 6.05068C12.0644 5.77724 12.0802 5.32802 12.0288 5.23427C11.9536 5.08583 11.831 5.14052 11.7796 5.18739C11.5448 5.44588 11.3874 5.76368 11.3248 6.10536C11.2536 6.33193 11.1784 6.26552 11.127 6.17568C11.0004 6.05849 10.9886 5.13271 10.8343 5.28505Z" fill="white"/>
<path fill-rule="evenodd" clip-rule="evenodd" d="M11.5779 6.80071C11.6926 6.72259 11.6411 6.6679 11.8072 6.83196C12.0217 7.20665 12.1461 7.62494 12.1711 8.05462C12.1632 8.15618 12.2344 8.21868 12.27 8.19524C12.2858 7.96087 12.8672 7.63274 13.4011 7.58587C13.4802 7.56634 13.4407 7.41399 13.4526 7.33587C13.4209 7.0429 13.6187 6.77727 13.8955 6.75774C14.2752 6.81243 14.4018 7.01165 14.4097 7.31243C14.3662 7.89837 13.7492 7.99602 13.4051 8.0429C13.3537 8.06243 13.33 8.08587 13.4051 8.11321L14.8527 8.12102L14.9278 8.16009C14.9357 8.19915 14.9041 8.1679 14.8487 8.26165C14.7696 8.40004 14.7198 8.55288 14.7024 8.71087C14.2713 8.85149 13.8243 8.90618 13.3735 8.96477C13.2153 9.0429 13.1362 9.14837 13.1678 9.26555C13.2232 9.39446 13.5712 9.52727 13.5712 9.53118C13.6384 9.57024 13.7136 9.6679 13.5514 9.86712C12.8474 9.83587 12.2977 9.53899 12.1078 9.12102C12.0525 9.07805 11.9892 9.12102 11.9496 9.17571C11.6728 9.52727 11.4038 9.83977 10.9332 10.0116C10.6563 10.082 10.3676 9.96868 10.2331 9.78899C10.1422 9.68352 10.1461 9.57024 10.1145 9.5468C9.96023 9.61321 8.65505 10.1601 8.82116 9.90227C9.13757 9.57024 9.69128 9.32024 10.1738 8.99212C10.2094 8.87884 10.2727 8.50384 10.4625 8.38274C10.4744 8.38274 10.4348 8.60149 10.4388 8.69524C10.4388 8.77337 10.4309 8.80071 10.4467 8.78118C10.4823 8.76165 11.0676 8.30462 11.1191 8.16399C11.1744 8.08587 11.1309 7.88274 11.1309 7.87493C11.0202 7.59368 10.8659 7.57024 10.8106 7.42962C10.7592 7.24602 10.7829 7.03509 10.8897 6.97259C10.9872 6.89186 11.0914 6.89837 11.2021 6.99212C11.3208 7.09759 11.4236 7.30462 11.4552 7.45696C11.4355 7.51555 11.297 7.4179 11.2575 7.44524C11.3336 7.53164 11.3842 7.63704 11.4038 7.74993C11.4829 8.07024 11.4592 8.19524 11.3801 8.40227C11.1191 8.94524 10.7868 9.1054 10.4942 9.30852C10.4863 9.30852 10.4823 9.44524 10.5891 9.51946C10.6286 9.55852 10.7829 9.57805 10.9609 9.51946C11.3403 9.30994 11.6475 8.99292 11.8428 8.6093C11.8764 8.31687 11.844 8.02071 11.7479 7.74212C11.6332 7.4804 11.4988 7.1093 11.4988 7.10149C11.4948 6.93743 11.5067 6.88274 11.5779 6.80071ZM7.78889 5.2929C7.955 5.37102 8.27141 5.33587 8.25559 5.07024L8.24768 4.94915C8.21604 4.87102 8.12112 4.89055 8.10134 4.96868C8.09343 4.99602 8.11321 5.03899 8.08947 5.05071C8.07365 5.06634 8.02224 5.05852 8.02224 4.9843C8.0196 4.95826 8.01037 4.93743 7.99455 4.9218C7.98928 4.9166 7.97741 4.91399 7.95896 4.91399C7.93523 4.91399 7.93523 4.9179 7.92336 4.93743C7.91809 4.95566 7.91413 4.97649 7.9115 4.99993C7.90886 5.02337 7.89831 5.03639 7.87986 5.03899C7.85613 5.03899 7.86008 5.03899 7.84031 5.03118C7.82976 5.02337 7.82317 5.01035 7.82053 4.99212L7.80866 4.92962C7.80075 4.9192 7.78757 4.91139 7.76911 4.90618C7.67815 4.90618 7.67024 5.01165 7.67815 5.05071C7.67024 5.05852 7.66628 5.24212 7.78889 5.2929Z" fill="white"/>
<path fill-rule="evenodd" clip-rule="evenodd" d="M12.6734 7.332C12.8396 7.41012 13.239 7.36715 13.1401 7.11325L13.1322 6.98825C13.0966 6.91012 13.0057 6.92965 12.9859 7.01169C12.978 7.03512 12.9978 7.07809 12.9701 7.08981C12.9582 7.10544 12.9028 7.09762 12.9068 7.02731C12.9042 7.00127 12.8949 6.97913 12.8791 6.9609C12.8712 6.9557 12.858 6.95309 12.8396 6.95309C12.8198 6.95309 12.8198 6.9609 12.8079 6.98044C12.8 6.99866 12.7961 7.0195 12.7961 7.04294C12.7908 7.06377 12.7789 7.07679 12.7605 7.082C12.7407 7.082 12.7446 7.082 12.7288 7.07028C12.7156 7.06247 12.7077 7.05075 12.7051 7.03512L12.6932 6.97262C12.6853 6.9596 12.6721 6.95179 12.6537 6.94919C12.5627 6.94919 12.5548 7.05075 12.5588 7.08981C12.5548 7.09762 12.5508 7.28512 12.6774 7.332H12.6734ZM15.5211 6.48825C15.6872 6.56637 15.9997 6.53122 15.9878 6.2695L15.9799 6.1445C15.9443 6.06637 15.8533 6.0859 15.8336 6.16403C15.8256 6.19137 15.8454 6.23434 15.8177 6.24997C15.8059 6.26169 15.7505 6.25387 15.7545 6.17965C15.7518 6.15361 15.7426 6.13278 15.7268 6.11715C15.7189 6.11195 15.7057 6.10934 15.6872 6.10934C15.6688 6.10934 15.6582 6.11846 15.6556 6.13669L15.6437 6.19528C15.6411 6.22132 15.6292 6.23434 15.6081 6.23434C15.5765 6.23434 15.5923 6.23434 15.5765 6.22653C15.5633 6.21872 15.5554 6.207 15.5527 6.19137C15.5527 6.16533 15.5488 6.1432 15.5409 6.12497C15.5303 6.11455 15.5171 6.10804 15.5013 6.10544C15.4104 6.10544 15.4025 6.207 15.4064 6.24606C15.4025 6.25387 15.3985 6.43747 15.5251 6.48825H15.5211ZM16.9963 8.60934C16.7076 8.93356 16.8342 9.46872 16.9014 9.5859C16.9963 9.7734 17.0715 9.8945 17.2574 9.98825C17.4275 10.1093 17.5619 10.0351 17.6331 9.94919C17.8032 9.7734 17.8071 9.32419 17.8862 9.23825C17.9416 9.07419 18.084 9.10153 18.1512 9.17575C18.2147 9.26339 18.2989 9.33444 18.3964 9.38278C18.5546 9.5195 18.7445 9.54684 18.9343 9.42184C19.0609 9.34762 19.144 9.25778 19.2191 9.07419C19.2982 8.85544 19.2587 7.83981 19.2389 7.23825L19.0728 6.3984C19.0728 6.39059 19.053 5.99997 19.0332 5.91012C19.0332 5.87106 19.0213 5.85934 19.0609 5.86325C19.1044 5.90231 19.1084 5.90231 19.14 5.91403C19.1796 5.92184 19.2191 5.84762 19.1914 5.78512L18.7959 5.05856C18.7643 5.02731 18.7208 4.99606 18.6693 5.06637C18.6384 5.09299 18.6138 5.12608 18.5974 5.16324C18.581 5.2004 18.5731 5.2407 18.5744 5.28122C18.5902 5.4557 18.6074 5.62887 18.6258 5.80075L18.784 6.68356C18.8355 7.30856 18.8473 7.82419 18.8987 8.45309C18.8908 8.71872 18.8078 8.94919 18.7287 8.98434C18.7287 8.98434 18.61 9.05075 18.5309 8.97653C18.4716 8.95309 18.2382 8.58981 18.2382 8.58981C18.1196 8.48434 18.0405 8.51169 17.9574 8.58981C17.7201 8.81637 17.6173 9.23044 17.4551 9.5195C17.4156 9.5859 17.2969 9.63669 17.1704 9.51559C16.8461 9.07419 17.0359 8.44919 16.9963 8.60934ZM15.5962 4.94919C15.7465 5.00778 15.8494 5.30856 15.8177 5.457C15.7861 5.63278 15.707 5.82809 15.6516 5.80465C15.5883 5.78122 15.6912 5.62497 15.6318 5.4609C15.6002 5.35153 15.3945 5.15622 15.4183 5.10153C15.3787 4.98044 15.5053 4.92575 15.5962 4.94528V4.94919Z" fill="white"/>
<path fill-rule="evenodd" clip-rule="evenodd" d="M17.4788 8.78905C17.5065 8.42967 17.4551 8.21092 17.4471 7.99998C17.4392 7.78905 17.2059 6.17967 17.1584 6.02342C17.0991 5.71873 17.3839 5.98436 17.3522 5.80467C17.2533 5.58592 17.0121 5.2617 16.9369 5.0703C16.8895 4.99217 16.9093 4.91405 16.8064 5.05077C16.7174 5.29037 16.6863 5.54718 16.7155 5.80077C16.9607 7.06248 17.2098 8.10936 17.1703 9.30858C17.2889 9.30858 17.4195 9.04686 17.4788 8.78905ZM20.0259 5.45702C20.1643 5.52342 20.2434 5.89842 20.2276 6.00389C20.1999 6.1992 20.1287 6.41014 20.0773 6.3828C20.0179 6.35936 20.0891 6.09373 20.0614 6.0117C20.0298 5.89451 19.8439 5.68358 19.8637 5.62108C19.8241 5.48826 19.9428 5.43358 20.0259 5.45702ZM9.91272 8.10936C10.0432 8.16014 10.1223 8.43358 10.1105 8.5117C10.0788 8.65623 10.0116 8.81248 9.96018 8.78905C9.90876 8.77342 9.97204 8.57811 9.94831 8.51561C9.93645 8.37108 9.75452 8.29295 9.75847 8.23045C9.72683 8.11327 9.83757 8.09373 9.91667 8.10936H9.91272Z" fill="white"/>
<path fill-rule="evenodd" clip-rule="evenodd" d="M13.061 8.52344C13.2271 8.53125 13.3102 8.66406 13.1559 8.71875C12.9977 8.76953 12.8514 8.8125 12.8474 9.03125C12.9068 9.34375 12.7683 9.23438 12.6892 9.19531C12.5943 9.125 12.3254 8.96094 12.2858 8.60938C12.2819 8.52734 12.3491 8.45312 12.4559 8.45312C12.6141 8.49609 12.8514 8.5 13.061 8.52344Z" fill="#165D31"/>
<path fill-rule="evenodd" clip-rule="evenodd" d="M6.43632 4.8594C6.62616 4.91409 6.63803 5.19534 6.62616 5.27737C6.59848 5.42581 6.53124 5.58597 6.48378 5.56643C6.42841 5.5469 6.48378 5.34378 6.45609 5.28128C6.42841 5.19534 6.26625 5.03128 6.28207 4.9844C6.24647 4.88675 6.36117 4.83987 6.43632 4.8594ZM10.2292 6.1719C10.0789 6.25003 10.0236 6.4844 10.1145 6.62503C10.2016 6.74222 10.336 6.69925 10.3518 6.69925C10.4982 6.71487 10.5852 6.42972 10.5852 6.42972C10.5852 6.42972 10.5892 6.35159 10.4191 6.50393C10.3439 6.51565 10.34 6.48831 10.3202 6.44925C10.3021 6.37488 10.309 6.29671 10.34 6.22659C10.3677 6.15628 10.3123 6.12503 10.2292 6.1719ZM11.3367 4.75003C11.2576 4.80081 11.1112 4.95315 11.1073 5.12503C11.1033 5.22268 11.0835 5.22268 11.1468 5.28128C11.1982 5.35159 11.2417 5.34768 11.3367 5.2969C11.3605 5.28238 11.3809 5.26304 11.3966 5.24014C11.4123 5.21725 11.4228 5.19133 11.4276 5.16409C11.4514 5.05472 11.309 5.21878 11.2932 5.09378C11.2615 4.97659 11.3525 4.92972 11.4395 4.82034C11.4395 4.74222 11.4395 4.69143 11.3327 4.75003H11.3367ZM12.2226 4.90628C12.1878 5.04854 12.1667 5.19371 12.1593 5.33987C12.1356 5.44925 12.278 5.49612 12.3373 5.3555C12.4322 5.10159 12.4322 4.99222 12.4401 4.88675C12.4124 4.71878 12.2977 4.72268 12.2226 4.90628ZM17.8388 7.7305C17.8546 7.71097 18.6298 7.168 18.6298 7.168C18.7089 7.14065 18.6891 7.44925 18.6536 7.44534C18.4131 7.67407 18.1366 7.86272 17.8349 8.00393C17.7953 8.03128 17.7597 7.7969 17.8349 7.7305H17.8388ZM18.5389 7.72268C18.6773 7.78909 18.7327 8.18362 18.7168 8.28909C18.7168 8.50003 18.5863 8.66409 18.5309 8.64065C18.4756 8.61331 18.5389 8.37893 18.5112 8.2969C18.4795 8.17972 18.3648 7.96487 18.3846 7.90237C18.3451 7.76956 18.4558 7.69925 18.5428 7.72268H18.5389ZM13.951 9.418C14.0151 9.34404 14.0897 9.27957 14.1725 9.22659C14.2516 9.18753 14.3227 9.25784 14.3188 9.25393C14.3307 9.33206 14.2713 9.39847 14.2911 9.50003C14.3069 9.53909 14.3188 9.58597 14.3939 9.57034C14.5165 9.47268 14.6312 9.46487 14.7499 9.46097C14.8488 9.46487 14.8527 9.62503 14.7894 9.62503C14.564 9.6719 14.4651 9.7344 14.303 9.793C14.2239 9.83987 14.1606 9.78128 14.1606 9.77737C14.1606 9.77347 14.1171 9.7344 14.1448 9.63284C14.1527 9.54951 14.121 9.51045 14.0498 9.51565C14.0024 9.5469 13.9549 9.56253 13.9312 9.50393C13.9154 9.46748 13.922 9.43883 13.951 9.418ZM19.3536 9.62893C19.3852 9.668 19.409 9.70706 19.3496 9.77737L19.2033 9.90237C19.1796 9.94143 19.1638 10.0117 19.2429 10.0313C19.3852 10.0703 19.7175 9.8555 19.7175 9.85159C19.7728 9.81253 19.757 9.7344 19.7491 9.7344C19.7175 9.69925 19.6463 9.72268 19.5988 9.71487C19.5751 9.71487 19.4999 9.70706 19.5355 9.63675C19.5623 9.60236 19.5836 9.56416 19.5988 9.52347C19.6225 9.4792 19.5962 9.44404 19.5197 9.418C19.4367 9.40237 19.4011 9.41018 19.3101 9.418C19.2679 9.42321 19.2429 9.45315 19.235 9.50784C19.2389 9.59768 19.2943 9.59378 19.3536 9.62503V9.62893Z" fill="white"/>
<path fill-rule="evenodd" clip-rule="evenodd" d="M13.9785 7.4103C13.9587 7.44936 13.8875 7.44936 13.8203 7.4103C13.753 7.37123 13.7135 7.30873 13.7372 7.27358C13.761 7.23842 13.8282 7.23842 13.8954 7.27358C13.9627 7.30873 13.9983 7.37514 13.9785 7.4103ZM10.4585 5.31655C10.4189 5.32826 10.3635 5.29311 10.3398 5.23842C10.3161 5.18373 10.3279 5.13686 10.3675 5.12514C10.407 5.11342 10.4585 5.15248 10.4862 5.20326C10.5138 5.25405 10.498 5.30873 10.4545 5.32045L10.4585 5.31655ZM17.4234 14.6486C17.7951 14.6642 18.1432 14.6486 18.511 14.6681C18.5782 14.7267 18.5308 14.8634 18.4873 14.8556L18.1788 14.8439C18.1748 14.7267 17.8742 14.7462 17.8821 14.8478C17.72 14.8673 17.5736 14.8439 17.4075 14.8361C17.3601 14.7775 17.368 14.672 17.4234 14.6486Z" fill="#165D31"/>
</g>
</g>
<defs>
<clipPath id="clip0_803_2833">
<rect width="27" height="20" fill="white"/>
</clipPath>
</defs>
</svg>
