<svg width="20" height="20" viewBox="0 0 20 20" fill="none" xmlns="http://www.w3.org/2000/svg">
<path d="M19.472 0.374289C19.0536 -0.0073429 18.4785 -0.105548 17.9746 0.118546L0.910695 7.6957C0.160076 8.03551 -0.197941 8.98029 0.111015 9.80583C0.270811 10.2328 0.588893 10.5642 0.985101 10.7165L4.66629 12.1241L6.66128 19.3791C6.66529 19.3938 6.67762 19.4028 6.68279 19.417C6.70342 19.4749 6.73359 19.5282 6.77167 19.5741C6.78585 19.5925 6.80131 19.6099 6.81782 19.6258C6.86752 19.6712 6.92525 19.7048 6.98733 19.7244C6.9968 19.7274 7.00314 19.7367 7.01279 19.7391L7.01837 19.7389L7.02116 19.7402C7.05295 19.748 7.08539 19.7517 7.11788 19.7514C7.16038 19.7498 7.20252 19.7417 7.24298 19.7274C7.25083 19.7251 7.25873 19.7257 7.2664 19.7229C7.33552 19.6961 7.39795 19.6521 7.44881 19.5941C7.45474 19.5876 7.46375 19.5865 7.46945 19.5796L10.3396 16.0963L14.5268 19.6624C14.7812 19.8812 15.0949 20.0001 15.4178 20C16.1163 19.9999 16.7192 19.4617 16.8631 18.71L19.9705 1.93125C20.0782 1.35084 19.8865 0.752405 19.472 0.374289ZM7.70295 13.5L7.02941 17.1001L5.62478 11.9905L12.5914 8.00048L7.83223 13.2351C7.76643 13.3075 7.7215 13.3997 7.70295 13.5ZM15.9303 18.4993C15.8938 18.6921 15.7687 18.8502 15.6001 18.9167C15.4354 18.9864 15.2494 18.9553 15.1109 18.8348L10.5741 14.9711C10.3776 14.8038 10.0973 14.831 9.93046 15.0335L7.9346 17.4555L8.60698 13.8652L15.4532 6.33412C15.6392 6.12985 15.6395 5.7984 15.4538 5.59381C15.3069 5.43186 15.0814 5.39363 14.897 5.49938L5.0271 11.1525L1.29667 9.7263C1.09334 9.65271 0.955048 9.44511 0.952548 9.20969C0.942725 8.97262 1.07032 8.75466 1.27063 8.6665L18.3317 1.09037C18.51 1.00719 18.7156 1.04203 18.8628 1.18039C19.0093 1.31044 19.0766 1.52021 19.0367 1.72257L15.9303 18.4993Z" fill="#524340"/>
</svg>
