<svg width="20" height="20" viewBox="0 0 20 20" fill="none" xmlns="http://www.w3.org/2000/svg">
<path d="M20 8.57406V5.08297C18.1528 5.08297 16.7431 4.64659 15.8333 3.7984C14.8996 2.83039 14.3766 1.60452 14.3542 0.331899V0.0799017L10.625 0V14.1795C10.4971 14.7981 10.1578 15.3672 9.65288 15.8097C9.14799 16.2523 8.50182 16.5471 7.80162 16.6544C7.10142 16.7616 6.3809 16.6762 5.73733 16.4095C5.09375 16.1428 4.55811 15.7078 4.20272 15.1632C3.84733 14.6186 3.68929 13.9905 3.74996 13.3639C3.81062 12.7373 4.08705 12.1422 4.54194 11.659C4.99684 11.1758 5.60828 10.8278 6.29372 10.6619C6.97917 10.496 7.70562 10.5203 8.375 10.7314V7.35095C7.98472 7.29435 7.58993 7.26558 7.19445 7.2649C5.77152 7.2649 4.38055 7.63835 3.19743 8.33803C2.01431 9.0377 1.09218 10.0322 0.547647 11.1957C0.00311716 12.3592 -0.139357 13.6395 0.138242 14.8747C0.415842 16.1099 1.10105 17.2445 2.10721 18.135C3.11337 19.0255 4.39529 19.632 5.79088 19.8776C7.18646 20.1233 8.63303 19.9972 9.94764 19.5153C11.2623 19.0334 12.3859 18.2172 13.1764 17.1701C13.9669 16.1229 14.3889 14.8918 14.3889 13.6325C14.3881 13.3715 14.3696 13.1108 14.3333 12.8519V7.22803C16.029 8.1653 18.0019 8.63393 20 8.57406Z" fill="#524340"/>
</svg>
