<svg width="20" height="20" viewBox="0 0 20 20" fill="none" xmlns="http://www.w3.org/2000/svg">
<path fill-rule="evenodd" clip-rule="evenodd" d="M19.6746 1.89679C20.1084 1.46287 20.1084 0.759356 19.6746 0.325433C19.2407 -0.108478 18.5371 -0.108478 18.1032 0.325433L11.4978 6.93088L6.74825 0.454055C6.53893 0.168633 6.20617 0 5.85222 0H1.11111C0.692411 0 0.309256 0.235378 0.12 0.608867C-0.0692666 0.982356 -0.0325 1.43052 0.2151 1.76817L7.17265 11.256L0.325434 18.1032C-0.108478 18.5371 -0.108478 19.2407 0.325434 19.6746C0.759356 20.1084 1.46287 20.1084 1.89679 19.6746L8.50222 13.0691L13.2518 19.546C13.4611 19.8313 13.7939 20 14.1478 20H18.8889C19.3076 20 19.6908 19.7647 19.88 19.3911C20.0692 19.0177 20.0326 18.5694 19.7849 18.2318L12.8273 8.744L19.6746 1.89679ZM10.4114 9.20722C10.4458 9.26445 10.4857 9.31911 10.5312 9.37067L16.6962 17.7778H14.7109L3.30376 2.22222H5.28918L10.4114 9.20722Z" fill="#524340"/>
</svg>
