<svg width="35" height="35" viewBox="0 0 35 35" fill="none" xmlns="http://www.w3.org/2000/svg">
<path d="M29.1667 4.375H5.83333C5.44656 4.375 5.07563 4.52865 4.80214 4.80214C4.52865 5.07563 4.375 5.44656 4.375 5.83333V29.1667C4.375 29.5534 4.52865 29.9244 4.80214 30.1979C5.07563 30.4714 5.44656 30.625 5.83333 30.625H29.1667C29.5534 30.625 29.9244 30.4714 30.1979 30.1979C30.4714 29.9244 30.625 29.5534 30.625 29.1667V5.83333C30.625 5.44656 30.4714 5.07563 30.1979 4.80214C29.9244 4.52865 29.5534 4.375 29.1667 4.375ZM16.0417 27.7083H7.29167V18.9583H16.0417V27.7083ZM16.0417 16.0417H7.29167V7.29167H16.0417V16.0417ZM27.7083 27.7083H18.9583V18.9583H27.7083V27.7083ZM27.7083 16.0417H18.9583V7.29167H27.7083V16.0417Z" fill="#524340"/>
</svg>
