<svg width="45" height="18" viewBox="0 0 45 18" fill="none" xmlns="http://www.w3.org/2000/svg">
<g clip-path="url(#clip0_118_800)">
<rect width="45" height="18" rx="8" fill="black"/>
<path d="M4.72498 8.97706L3.85723 9.99706L2.99023 8.97706L3.85723 7.95706L4.72498 8.97706ZM6.82873 6.5003L8.31448 8.24912L9.18148 7.22912L6.82873 4.46118L4.47598 7.22912L5.34298 8.24912L6.82873 6.5003ZM9.80098 7.95706L8.93398 8.97706L9.80098 9.99706L10.6672 8.97706L9.80098 7.95706ZM6.82873 11.4538L5.34298 9.70589L4.47598 10.725L6.82873 13.4929L9.18148 10.725L8.31448 9.70589L6.82873 11.4538ZM6.82873 9.99706L7.69573 8.97706L6.82873 7.95706L5.96173 8.97706L6.82873 9.99706ZM15.9787 10.095V10.0809C15.9787 9.41559 15.6787 9.08294 15.1905 8.86412C15.4905 8.66559 15.744 8.35412 15.744 7.79559V7.78147C15.744 7.00324 15.2145 6.5003 14.3542 6.5003H12.4012V11.4538H14.4037C15.354 11.4538 15.9802 11.0012 15.9802 10.095H15.9787ZM14.8237 7.97736C14.8237 8.3453 14.565 8.50147 14.1562 8.50147H13.3035V7.45589H14.2177C14.6085 7.45589 14.8252 7.63942 14.8252 7.965L14.8237 7.97736ZM15.0585 9.95912C15.0585 10.3271 14.8117 10.4965 14.4022 10.4965H13.3035V9.40853H14.3737C14.8492 9.40853 15.06 9.61412 15.06 9.94677L15.0585 9.95912ZM17.925 11.4538V6.5003H16.9957V11.4538H17.925ZM22.9042 11.4538V6.5003H21.987V9.55059L20.0145 6.5003H19.1602V11.4538H20.0745V8.30471L22.113 11.4538H22.9042ZM28.035 11.4538L26.2275 6.465H25.3732L23.5695 11.4538H24.5137L24.9 10.3429H26.6805L27.0652 11.4538H28.035ZM26.3512 9.3803H25.2292L25.7887 7.77442L26.3512 9.3803ZM32.4502 11.4538V6.5003H31.533V9.55059L29.5597 6.5003H28.7062V11.4538H29.6197V8.30471L31.659 11.4538H32.4502ZM37.2315 10.6544L36.6427 9.95383C36.312 10.3068 36.0172 10.5335 35.5357 10.5335C34.8142 10.5335 34.3147 9.82765 34.3147 8.97706V8.96294C34.3147 8.11412 34.8262 7.42059 35.5357 7.42059C35.9565 7.42059 36.2857 7.63236 36.6127 7.97912L37.2 7.17971C36.8092 6.72706 36.3345 6.41559 35.5402 6.41559C34.2472 6.41559 33.345 7.56883 33.345 8.97442V8.98853C33.345 10.4109 34.2652 11.5359 35.5042 11.5359C36.315 11.5385 36.7957 11.1988 37.2285 10.6544H37.2315ZM41.184 11.4538V10.4832H38.895V9.44118H40.8802V8.47059H38.895V7.47H41.151V6.49942H37.9747V11.4529L41.184 11.4538Z" fill="#F0B90B"/>
</g>
<defs>
<clipPath id="clip0_118_800">
<rect width="45" height="18" rx="8" fill="white"/>
</clipPath>
</defs>
</svg>
