<svg width="40" height="40" viewBox="0 0 40 40" fill="none" xmlns="http://www.w3.org/2000/svg">
<g clip-path="url(#clip0_118_761)">
<path fill-rule="evenodd" clip-rule="evenodd" d="M11.4629 36.6666L16.6635 38.2143V36.1904L17.088 35.7142H20.0597V38.0952V39.7619H16.8757L12.9487 37.8571L11.4629 36.6666Z" fill="#CDBDB2"/>
<path fill-rule="evenodd" clip-rule="evenodd" d="M28.4434 36.6666L23.349 38.2143V36.1904L22.9245 35.7142H19.9528V38.0952V39.7619H23.1368L27.0635 37.8571L28.4434 36.6666Z" fill="#CDBDB2"/>
<path fill-rule="evenodd" clip-rule="evenodd" d="M17.0876 32.262L16.6631 36.1904L17.1937 35.7142H22.7125L23.3493 36.1904L22.9248 32.262L22.0757 31.6666L17.8304 31.7858L17.0876 32.262Z" fill="#393939"/>
<path fill-rule="evenodd" clip-rule="evenodd" d="M14.2217 5.71423L16.7688 12.3809L17.9364 31.7858H22.0755L23.349 12.3809L25.6839 5.71423H14.2217Z" fill="#F89C35"/>
<path fill-rule="evenodd" clip-rule="evenodd" d="M3.07814 20.3572L0.106445 29.9999L7.53569 29.5238H12.3115V25.3572L12.0993 16.7858L11.038 17.7381L3.07814 20.3572Z" fill="#F89D35"/>
<path fill-rule="evenodd" clip-rule="evenodd" d="M8.70312 21.4285L17.406 21.6666L16.4509 26.6666L12.3116 25.4761L8.70312 21.4285Z" fill="#D87C30"/>
<path fill-rule="evenodd" clip-rule="evenodd" d="M8.70312 21.5477L12.3116 25.3572V29.1667L8.70312 21.5477Z" fill="#EA8D3A"/>
<path fill-rule="evenodd" clip-rule="evenodd" d="M12.3115 25.4761L16.5568 26.6666L17.9366 31.7858L16.9813 32.3809L12.3115 29.2857V25.4761Z" fill="#F89D35"/>
<path fill-rule="evenodd" clip-rule="evenodd" d="M12.3119 29.2857L11.4629 36.6667L17.088 32.262L12.3119 29.2857Z" fill="#EB8F35"/>
<path fill-rule="evenodd" clip-rule="evenodd" d="M17.406 21.6666L17.9368 31.7858L16.3447 26.6072L17.406 21.6666Z" fill="#EA8E3A"/>
<path fill-rule="evenodd" clip-rule="evenodd" d="M7.42969 29.4049L12.3118 29.2857L11.4627 36.6667L7.42969 29.4049Z" fill="#D87C30"/>
<path fill-rule="evenodd" clip-rule="evenodd" d="M2.44135 39.881L11.4625 36.6666L7.42946 29.4048L0.106445 30L2.44135 39.881Z" fill="#EB8F35"/>
<path fill-rule="evenodd" clip-rule="evenodd" d="M16.7692 12.3809L12.2056 16.6666L8.70312 21.4285L17.406 21.7858L16.7692 12.3809Z" fill="#E8821E"/>
<path fill-rule="evenodd" clip-rule="evenodd" d="M11.4629 36.6666L17.088 32.262L16.6635 36.0715V38.2143L12.8427 37.3809L11.4629 36.6666Z" fill="#DFCEC3"/>
<path fill-rule="evenodd" clip-rule="evenodd" d="M28.4434 36.6666L22.9245 32.262L23.349 36.0715V38.2143L27.1698 37.3809L28.4434 36.6666Z" fill="#DFCEC3"/>
<path fill-rule="evenodd" clip-rule="evenodd" d="M15.0707 23.8095L16.2383 26.5477L12.099 25.3572L15.0707 23.8095Z" fill="#393939"/>
<path fill-rule="evenodd" clip-rule="evenodd" d="M2.33496 0.119141L16.7689 12.3809L14.328 5.71427L2.33496 0.119141Z" fill="#E88F35"/>
<path fill-rule="evenodd" clip-rule="evenodd" d="M2.33518 0.119019L0.424805 6.66664L1.48613 13.8095L0.743201 14.2857L1.80452 15.3571L0.955465 16.1904L2.12292 17.3809L1.37999 18.0952L3.07811 20.4762L11.038 17.7381C14.9295 14.246 16.8399 12.4603 16.7691 12.3809C16.6984 12.3016 11.8871 8.21426 2.33518 0.119019Z" fill="#8E5A30"/>
<path fill-rule="evenodd" clip-rule="evenodd" d="M36.8281 20.3572L39.7998 29.9999L32.3706 29.5238H27.5947V25.3572L27.807 16.7858L28.8683 17.7381L36.8281 20.3572Z" fill="#F89D35"/>
<path fill-rule="evenodd" clip-rule="evenodd" d="M31.2031 21.4285L22.5003 21.6666L23.4554 26.6666L27.5946 25.4761L31.2031 21.4285Z" fill="#D87C30"/>
<path fill-rule="evenodd" clip-rule="evenodd" d="M31.2031 21.5477L27.5946 25.3572V29.1667L31.2031 21.5477Z" fill="#EA8D3A"/>
<path fill-rule="evenodd" clip-rule="evenodd" d="M27.5947 25.4761L23.3494 26.6666L21.9696 31.7858L22.9249 32.3809L27.5947 29.2857V25.4761Z" fill="#F89D35"/>
<path fill-rule="evenodd" clip-rule="evenodd" d="M27.5943 29.2857L28.4434 36.6667L22.9245 32.3809L27.5943 29.2857Z" fill="#EB8F35"/>
<path fill-rule="evenodd" clip-rule="evenodd" d="M22.5002 21.6666L21.9694 31.7858L23.5615 26.6072L22.5002 21.6666Z" fill="#EA8E3A"/>
<path fill-rule="evenodd" clip-rule="evenodd" d="M32.4766 29.4049L27.5945 29.2857L28.4435 36.6667L32.4766 29.4049Z" fill="#D87C30"/>
<path fill-rule="evenodd" clip-rule="evenodd" d="M37.4649 39.881L28.4438 36.6666L32.4768 29.4048L39.7998 30L37.4649 39.881Z" fill="#EB8F35"/>
<path fill-rule="evenodd" clip-rule="evenodd" d="M23.1371 12.3809L27.7007 16.6666L31.2031 21.4285L22.5003 21.7858L23.1371 12.3809Z" fill="#E8821E"/>
<path fill-rule="evenodd" clip-rule="evenodd" d="M24.8355 23.8095L23.668 26.5477L27.8072 25.3572L24.8355 23.8095Z" fill="#393939"/>
<path fill-rule="evenodd" clip-rule="evenodd" d="M37.5713 0.119141L23.1373 12.3809L25.5783 5.71427L37.5713 0.119141Z" fill="#E88F35"/>
<path fill-rule="evenodd" clip-rule="evenodd" d="M37.5711 0.119019L39.4814 6.66664L38.4201 13.8095L39.163 14.2857L38.1017 15.3571L38.9508 16.1904L37.7833 17.3809L38.5263 18.0952L36.8281 20.4762L28.8682 17.7381C24.9767 14.246 23.0664 12.4603 23.1371 12.3809C23.2079 12.3016 28.0192 8.21426 37.5711 0.119019Z" fill="#8E5A30"/>
</g>
<defs>
<clipPath id="clip0_118_761">
<rect width="40" height="40" fill="white"/>
</clipPath>
</defs>
</svg>
