<svg width="40" height="40" viewBox="0 0 40 40" fill="none" xmlns="http://www.w3.org/2000/svg">
<path d="M20.0001 36.6188C19.6678 36.6186 19.3449 36.5087 19.0814 36.3063C19.0814 36.3063 17.9282 35.4375 14.7407 33.6906C9.86262 31.0188 7.61887 27.8125 6.997 22.625C6.51575 18.6094 6.20325 10.2219 6.19075 9.86564C6.18186 9.65133 6.21886 9.43759 6.29925 9.23873C6.37964 9.03987 6.50158 8.86047 6.65691 8.71254C6.81224 8.56461 6.99737 8.45156 7.19991 8.38096C7.40246 8.31035 7.61774 8.28382 7.83137 8.30314C7.86262 8.30314 11.1251 8.57814 13.9314 7.79064C15.7796 7.25762 17.5094 6.37734 19.0282 5.19689C19.3006 4.9685 19.6447 4.84332 20.0001 4.84332C20.3556 4.84332 20.6996 4.9685 20.972 5.19689C22.4893 6.38479 24.2191 7.27251 26.0689 7.81252C28.8814 8.60002 32.1376 8.32502 32.172 8.32502C32.3855 8.30565 32.6006 8.33217 32.803 8.4028C33.0054 8.47343 33.1904 8.58653 33.3455 8.73451C33.5006 8.8825 33.6222 9.06195 33.7022 9.26081C33.7823 9.45968 33.8188 9.67336 33.8095 9.88752C33.8095 10.2438 33.497 18.6375 33.0032 22.6469C32.3782 27.8344 30.1376 31.0406 25.2626 33.7094C22.0751 35.4563 20.9282 36.3219 20.9157 36.3313C20.65 36.5244 20.3285 36.6253 20.0001 36.6188ZM9.26575 11.3719C9.37512 14.0625 9.647 19.4125 10.0001 22.2688C10.4376 25.9188 11.5907 28.5188 16.197 31.0469C18.072 32.0688 19.2782 32.8125 20.0126 33.2906C20.747 32.8125 21.9626 32.0688 23.8282 31.0469C28.4376 28.525 29.5751 25.9188 30.0001 22.2688C30.3532 19.4125 30.6251 14.0625 30.7345 11.3719C28.8859 11.3893 27.0429 11.1634 25.2532 10.7C23.3818 10.1609 21.6084 9.32647 20.0001 8.22814C18.3918 9.32647 16.6185 10.1609 14.747 10.7C12.9573 11.1634 11.1144 11.3893 9.26575 11.3719Z" fill="#5D3FD3"/>
</svg>
